<svg id="Emo-bad" xmlns="http://www.w3.org/2000/svg" width="40" height="40">
    <defs>
        <clipPath id="clip-path">
            <path id="Rectangle_9166" data-name="Rectangle 9166" transform="translate(248 10988)" style="fill:#fff" d="M0 0h40v40H0z"/>
        </clipPath>
        <style>
            .cls-5{fill:#1a2c47}
        </style>
    </defs>
    <g id="Mask_Group_698" data-name="Mask Group 698" transform="translate(-248 -10988)" style="clip-path:url(#clip-path)">
        <g id="Group_31770" data-name="Group 31770" transform="translate(182.649 10977.708)">
            <g id="Group_31590" data-name="Group 31590" transform="translate(66.351 12.292)">
                <g id="Group_31529-4" data-name="Group 31529-4">
                    <path id="Path_21034-4" data-name="Path 21034-4" d="M85.239 12.292c2.8 0 6.958 9.78 7.385 10.046s10.792 1.52 11.651 3.536-7.115 9.308-7.313 9.8 1.8 10.865.156 12.22-11.008-3.949-11.58-3.953-9.993 5.048-12.015 3.663.732-11.372.586-11.933-8.223-7.135-7.313-9.8 11.28-3.259 11.651-3.536 3.995-10.043 6.792-10.043z" transform="translate(-66.341 -12.292)" style="fill:#61738e"/>
                    <path id="Path_21035-4" data-name="Path 21035-4" d="M84.764 12.63c2.741 0 6.335 9.975 6.754 10.236s10.751 1.119 11.593 3.093-7.151 8.934-7.344 9.416 1.942 10.825.333 12.151-10.782-4.051-11.339-4.054-9.361 5.411-11.336 4.054.663-11.418.522-11.968-8.421-6.983-7.529-9.6 11.413-2.821 11.782-3.092 3.824-10.236 6.564-10.236z" transform="translate(-66.351 -12.283)" style="fill:#a5b3c8"/>
                </g>
            </g>
            <g id="Group_31541" data-name="Group 31541" transform="translate(74.563 27.654)">
                <path id="Path_17601-2" data-name="Path 17601-2" class="cls-5" d="M85.071 32.354a6.969 6.969 0 0 1 3.8 1.048c1.366.873 2.314 2.307 1.9 2.622-.539.411-2.543-1.619-5.694-1.621-3.151 0-5.154 2.032-5.693 1.621-.411-.316.533-1.746 1.9-2.622a6.964 6.964 0 0 1 3.787-1.048z" transform="translate(-74.215 -27.114)"/>
                <path id="Path_17602-2" data-name="Path 17602-2" class="cls-5" d="M95.543 28.931c-.127-.436-2.156.382-4.826-.6-1.45-.533-2.084-1.222-2.25-1.052-.281.295.881 2.875 3.105 3.329 2.083.429 4.097-1.22 3.971-1.677z" transform="translate(-73.969 -27.251)"/>
                <path id="Path_17603-2" data-name="Path 17603-2" class="cls-5" d="M74.353 28.931c.125-.436 2.157.382 4.826-.6 1.45-.533 2.083-1.222 2.251-1.052.281.295-.883 2.875-3.107 3.329-2.09.429-4.095-1.22-3.97-1.677z" transform="translate(-74.348 -27.251)"/>
            </g>
        </g>
    </g>
</svg>
