<svg id="Emo-Good" xmlns="http://www.w3.org/2000/svg" xmlns:xlink="http://www.w3.org/1999/xlink" width="40" height="40" viewBox="0 0 40 40">
  <defs>
    <style>
      .cls-1 {
        fill: #fff;
      }

      .cls-2 {
        clip-path: url(#clip-path);
      }

      .cls-3 {
        fill: #61738e;
      }

      .cls-4 {
        fill: #a5b3c8;
      }

      .cls-5 {
        fill: #1a2c47;
      }
    </style>
    <clipPath id="clip-path">
      <rect id="Rectangle_9169" data-name="Rectangle 9169" class="cls-1" width="40" height="40" transform="translate(535 10963)"/>
    </clipPath>
  </defs>
  <g id="Mask_Group_700" data-name="Mask Group 700" class="cls-2" transform="translate(-535 -10963)">
    <g id="Group_31772" data-name="Group 31772" transform="translate(374.149 10952.818)">
      <g id="Group_31672" data-name="Group 31672" transform="translate(161.851 12.292)">
        <g id="Group_31529-5" data-name="Group 31529-5">
          <path id="Path_21034-5" data-name="Path 21034-5" class="cls-3" d="M180.739,12.292c2.8,0,6.958,9.78,7.385,10.046s10.792,1.52,11.651,3.536-7.115,9.308-7.313,9.8,1.8,10.865.156,12.22-11.008-3.949-11.58-3.953-9.993,5.048-12.015,3.663.732-11.372.586-11.933-8.223-7.135-7.313-9.8,11.28-3.259,11.651-3.536S177.942,12.292,180.739,12.292Z" transform="translate(-161.841 -12.292)"/>
          <path id="Path_21035-5" data-name="Path 21035-5" class="cls-4" d="M180.264,12.63c2.741,0,6.335,9.975,6.754,10.236s10.751,1.119,11.593,3.093-7.151,8.934-7.344,9.416,1.942,10.823.337,12.151-10.782-4.051-11.339-4.054-9.363,5.411-11.339,4.054.663-11.418.522-11.968-8.421-6.983-7.529-9.6,11.413-2.822,11.778-3.093S177.524,12.63,180.264,12.63Z" transform="translate(-161.851 -12.283)"/>
        </g>
      </g>
      <g id="Group_31759" data-name="Group 31759" transform="translate(171.984 24.774)">
        <path id="Path_17601-2-2" data-name="Path 17601-2-2" class="cls-5" d="M180.071,38.079a6.968,6.968,0,0,0,3.8-1.047c1.366-.873,2.314-2.307,1.9-2.622-.539-.411-2.543,1.619-5.694,1.62h0c-3.151,0-5.154-2.032-5.693-1.62-.411.316.533,1.746,1.9,2.622A6.954,6.954,0,0,0,180.071,38.079Z" transform="translate(-171.649 -24.181)"/>
        <g id="Group_31543" data-name="Group 31543">
          <ellipse id="Ellipse_756-5-5" data-name="Ellipse 756-5-5" class="cls-5" cx="3.332" cy="2.307" rx="3.332" ry="2.307" transform="translate(10.398 6.516) rotate(-77.881)"/>
          <ellipse id="Ellipse_756-5-6" data-name="Ellipse 756-5-6" class="cls-5" cx="2.306" cy="3.331" rx="2.306" ry="3.331" transform="matrix(0.978, -0.21, 0.21, 0.978, 0, 0.974)"/>
        </g>
      </g>
    </g>
  </g>
</svg>
