<svg id="Emo-Lovedit" xmlns="http://www.w3.org/2000/svg" xmlns:xlink="http://www.w3.org/1999/xlink" width="40" height="40" viewBox="0 0 40 40">
  <defs>
    <style>
      .cls-1 {
        fill: #fff;
      }

      .cls-2 {
        clip-path: url(#clip-path);
      }

      .cls-3 {
        fill: #61738e;
      }

      .cls-4 {
        fill: #a5b3c8;
      }

      .cls-5 {
        fill: #1a2c47;
      }

      .cls-6 {
        fill: #324766;
      }
    </style>
    <clipPath id="clip-path">
      <rect id="Rectangle_9170" data-name="Rectangle 9170" class="cls-1" width="40" height="40" transform="translate(544 11051)"/>
    </clipPath>
  </defs>
  <g id="Mask_Group_701" data-name="Mask Group 701" class="cls-2" transform="translate(-544 -11051)">
    <g id="Group_31777" data-name="Group 31777" transform="translate(336.034 11040.818)">
      <g id="Group_31587" data-name="Group 31587" transform="translate(208.965 12.292)">
        <g id="Group_31529-6" data-name="Group 31529-6">
          <path id="Path_21034-6" data-name="Path 21034-6" class="cls-3" d="M227.853,12.292c2.8,0,6.958,9.78,7.386,10.046s10.792,1.52,11.652,3.536-7.116,9.308-7.313,9.805,1.8,10.865.156,12.22-11.009-3.95-11.581-3.953S218.16,49,216.138,47.61s.732-11.372.586-11.933-8.224-7.135-7.313-9.805,11.28-3.259,11.652-3.536S225.056,12.292,227.853,12.292Z" transform="translate(-208.955 -12.292)"/>
          <path id="Path_21035-6" data-name="Path 21035-6" class="cls-4" d="M227.379,12.63c2.741,0,6.335,9.976,6.754,10.236s10.751,1.119,11.593,3.093-7.152,8.934-7.345,9.416,1.942,10.823.337,12.152-10.783-4.051-11.339-4.054-9.364,5.411-11.339,4.054.663-11.418.522-11.968-8.421-6.983-7.528-9.6,11.413-2.822,11.778-3.093S224.638,12.63,227.379,12.63Z" transform="translate(-208.965 -12.283)"/>
        </g>
      </g>
      <g id="Group_31544" data-name="Group 31544" transform="translate(217.275 24.8)">
        <ellipse id="Ellipse_756-5-7" data-name="Ellipse 756-5-7" class="cls-5" cx="3.332" cy="2.307" rx="3.332" ry="2.307" transform="translate(13.157 9.006) rotate(-77.881)"/>
        <path id="Path_17612-2" data-name="Path 17612-2" class="cls-5" d="M217.243,32.507c.2.417,1.631-.646,4.8-.918,1.54-.131,2.245.028,2.276-.231.051-.452-1.971-1.96-3.965-1.635C218.394,30.046,217.026,32.05,217.243,32.507Z" transform="translate(-217.053 -24.332)"/>
        <g id="Group_21636-2" data-name="Group 21636-2" transform="translate(0 0)">
          <g id="Group_21614-2" data-name="Group 21614-2" transform="translate(13.335)">
            <g id="Group_21613-2" data-name="Group 21613-2">
              <path id="Path_17588-2" data-name="Path 17588-2" class="cls-5" d="M236.4,27.98a.512.512,0,0,1-.433-.244,4.965,4.965,0,0,0-5.313-2.157.5.5,0,0,1-.238-.978h0c.043-.011,4.266-.991,6.416,2.616a.506.506,0,0,1-.431.763Z" transform="translate(-230.043 -24.472)"/>
            </g>
          </g>
          <g id="Group_21616-2" data-name="Group 21616-2" transform="translate(0 1.391)">
            <g id="Group_21615-2" data-name="Group 21615-2">
              <path id="Path_17589-2" data-name="Path 17589-2" class="cls-5" d="M217.563,28.925a.5.5,0,0,1-.411-.8c2.473-3.394,6.585-2.032,6.634-2.019a.5.5,0,0,1-.326.948,4.965,4.965,0,0,0-5.489,1.658A.5.5,0,0,1,217.563,28.925Z" transform="translate(-217.057 -25.826)"/>
            </g>
          </g>
        </g>
        <path id="Path_17587-2" data-name="Path 17587-2" class="cls-5" d="M226.038,40.364a.5.5,0,0,1-.027-1c1.335-.076,1.774-.365,1.824-.525.08-.254-.411-.853-.79-1.151a.511.511,0,0,1-.188-.336.5.5,0,0,1,.1-.37l.034-.038c.789-.822.9-1.264.833-1.389-.124-.262-1.04-.4-1.737-.334a.5.5,0,0,1-.156-1,.392.392,0,0,1,.07-.006c.369-.032,2.241-.139,2.738.9.359.754-.215,1.609-.666,2.14a2.035,2.035,0,0,1,.727,1.881c-.231.727-1.124,1.13-2.728,1.224Z" transform="translate(-216.829 -24.21)"/>
        <g id="Group_31775" data-name="Group 31775" transform="translate(16.907 7.613)">
          <g id="Group_22725" data-name="Group 22725">
            <g id="Group_22724" data-name="Group 22724">
              <path id="Path_17794" data-name="Path 17794" class="cls-6" d="M247.462,40.281c-2.242,4.114-9.315,3.649-9.315,3.649s-.346-.475-.792-1.25c-1.1-1.915-2.768-5.654-1.184-8.556,1.063-1.951,2.516-2.465,3.763-2.154a3.542,3.542,0,0,1,2.51,4.082c2.006-1.993,5.935-.818,5.656,2.293A4.981,4.981,0,0,1,247.462,40.281Z" transform="translate(-235.521 -31.885)"/>
            </g>
          </g>
          <g id="Group_22727" data-name="Group 22727" transform="translate(0.917 0.598)">
            <g id="Group_22726" data-name="Group 22726">
              <path id="Path_17795" data-name="Path 17795" class="cls-3" d="M241.832,35.81a2.934,2.934,0,0,1-3.409,2.364l-.111-.023a2.914,2.914,0,0,1-1.747-3.655,2.714,2.714,0,0,1,5.267,1.313Z" transform="translate(-236.414 -32.467)"/>
            </g>
          </g>
          <g id="Group_22729" data-name="Group 22729" transform="translate(7.706 3.536)">
            <g id="Group_22728" data-name="Group 22728">
              <path id="Path_17796" data-name="Path 17796" class="cls-3" d="M246.279,36.917a1.673,1.673,0,0,1-1.952,1.333q-.06-.012-.12-.028a1.586,1.586,0,0,1-1.174-1.7,1.625,1.625,0,0,1,1.923-1.157A1.6,1.6,0,0,1,246.279,36.917Z" transform="translate(-243.025 -35.328)"/>
            </g>
          </g>
          <g id="Group_22731" data-name="Group 22731" transform="translate(1.834 6.455)">
            <g id="Group_22730" data-name="Group 22730">
              <path id="Path_17797" data-name="Path 17797" class="cls-5" d="M247.414,40.113c-2.243,4.114-9.315,3.649-9.315,3.649a14.252,14.252,0,0,1-.792-1.25c2.445.067,8.8-.178,10.745-4.341A4.982,4.982,0,0,1,247.414,40.113Z" transform="translate(-237.307 -38.171)"/>
            </g>
          </g>
        </g>
      </g>
    </g>
  </g>
</svg>
