<svg width="32" height="32" viewBox="0 0 32 32" fill="none" xmlns="http://www.w3.org/2000/svg">
<rect x="0.5" y="0.5" width="31" height="31" rx="7.5" fill="white"/>
<g clip-path="url(#clip0_1949_221820)">
<path d="M22.5188 15.1442L13.5188 9.65047C13.3688 9.55547 13.1957 9.50347 13.0183 9.50017C12.8408 9.49686 12.6659 9.54237 12.5125 9.63172C12.3569 9.7171 12.2272 9.84284 12.137 9.99572C12.0468 10.1486 11.9995 10.323 12 10.5005V21.5005C11.9995 21.678 12.0468 21.8523 12.137 22.0052C12.2272 22.1581 12.3569 22.2838 12.5125 22.3692C12.6659 22.4586 12.8408 22.5041 13.0183 22.5008C13.1957 22.4975 13.3688 22.4455 13.5188 22.3505L22.5188 16.8567C22.6663 16.7677 22.7883 16.6421 22.873 16.4921C22.9577 16.3421 23.0022 16.1727 23.0022 16.0005C23.0022 15.8282 22.9577 15.6588 22.873 15.5088C22.7883 15.3588 22.6663 15.2332 22.5188 15.1442Z" fill="#005BB3"/>
</g>
<rect x="0.5" y="0.5" width="31" height="31" rx="7.5" stroke="#D6DEE5"/>
<defs>
<clipPath id="clip0_1949_221820">
<rect width="16" height="16" fill="white" transform="translate(8 8)"/>
</clipPath>
</defs>
</svg>
