<svg width="117" height="24" viewBox="0 0 117 24" fill="none" xmlns="http://www.w3.org/2000/svg">
<rect x="0.5" y="0.5" width="116" height="23" rx="11.5" fill="#1A2C47"/>
<rect width="24" height="24" rx="12" fill="url(#paint0_linear_403_169443)"/>
<path d="M8.5 6.5H15.5L19 10.5L12 18L5 10.5L8.5 6.5Z" stroke="white" stroke-linecap="round" stroke-linejoin="round"/>
<path d="M15.0696 10.5L12.0009 18L8.93213 10.5L12.0009 6.5L15.0696 10.5Z" stroke="white" stroke-linecap="round" stroke-linejoin="round"/>
<path d="M5 10.5H19" stroke="white" stroke-linecap="round" stroke-linejoin="round"/>
<path d="M33.26 16H34.436V12.36H35.934C37.95 12.36 39.336 11.464 39.336 9.518C39.336 7.502 37.936 6.816 35.878 6.816H33.26V16ZM34.436 11.408V7.768H35.738C37.348 7.768 38.16 8.202 38.16 9.518C38.16 10.82 37.39 11.408 35.794 11.408H34.436ZM43.3034 16H44.4794V12.122H46.1314L48.3434 16H49.6734L47.3354 11.996C48.5814 11.674 49.3934 10.834 49.3934 9.406C49.3934 7.488 48.0494 6.816 46.1734 6.816H43.3034V16ZM44.4794 11.17V7.768H46.0054C47.4334 7.768 48.2174 8.202 48.2174 9.406C48.2174 10.582 47.4334 11.17 46.0054 11.17H44.4794ZM53.3877 16H58.8197V15.006H54.5637V11.674H58.0357V10.68H54.5637V7.81L58.6797 7.81V6.816L53.3877 6.816V16ZM62.8565 16H63.9345V10.932C63.9345 10.12 63.8365 8.986 63.7665 8.188H63.8225L64.5505 10.33L66.2585 15.076H67.1125L68.8345 10.33L69.5485 8.188H69.6045C69.5345 8.986 69.4365 10.12 69.4365 10.932V16H70.5425V6.816H69.0725L67.3365 11.73C67.1125 12.374 66.9445 12.962 66.7345 13.648H66.6785C66.4825 12.962 66.2865 12.374 66.0625 11.73L64.3265 6.816H62.8565V16ZM75.1424 16H76.3184V6.816H75.1424V16ZM84.1822 16.168C86.0582 16.168 87.4862 15.146 87.4862 12.206V6.816H86.3522V12.234C86.3522 14.432 85.4002 15.132 84.1822 15.132C82.9782 15.132 82.0542 14.432 82.0542 12.234V6.816H80.8782V12.206C80.8782 15.146 82.3062 16.168 84.1822 16.168ZM92.0569 16H93.1349V10.932C93.1349 10.12 93.0369 8.986 92.9669 8.188H93.0229L93.7509 10.33L95.4589 15.076H96.3129L98.0349 10.33L98.7489 8.188H98.8049C98.7349 8.986 98.6369 10.12 98.6369 10.932V16H99.7429V6.816H98.2729L96.5369 11.73C96.3129 12.374 96.1449 12.962 95.9349 13.648H95.8789C95.6829 12.962 95.4869 12.374 95.2629 11.73L93.5269 6.816H92.0569V16Z" fill="white"/>
<rect x="0.5" y="0.5" width="116" height="23" rx="11.5" stroke="url(#paint1_linear_403_169443)"/>
<defs>
<linearGradient id="paint0_linear_403_169443" x1="0" y1="0" x2="24" y2="24" gradientUnits="userSpaceOnUse">
<stop stop-color="#FFBD5C"/>
<stop offset="1" stop-color="#D97C00"/>
</linearGradient>
<linearGradient id="paint1_linear_403_169443" x1="5.39362" y1="-7.78635e-06" x2="149.117" y2="18.0276" gradientUnits="userSpaceOnUse">
<stop stop-color="#FFBD5C"/>
<stop offset="1" stop-color="#D97C00"/>
</linearGradient>
</defs>
</svg>
