<svg id="Emo-verybad" xmlns="http://www.w3.org/2000/svg" width="40" height="40">
    <defs>
        <clipPath id="clip-path">
            <path id="Rectangle_9164" data-name="Rectangle 9164" transform="translate(312 11000)" style="fill:#fff" d="M0 0h40v40H0z"/>
        </clipPath>
        <style>
            .cls-5{fill:#1a2c47}
        </style>
    </defs>
    <g id="Mask_Group_697" data-name="Mask Group 697" transform="translate(-312 -11000)" style="clip-path:url(#clip-path)">
        <g id="Group_31769" data-name="Group 31769" transform="translate(294.808 10989.793)">
            <g id="Group_31591" data-name="Group 31591" transform="translate(18.192 12.292)">
                <g id="Group_31529-2" data-name="Group 31529-2">
                    <path id="Path_21034-2" data-name="Path 21034-2" d="M37.085 12.292c2.8 0 6.96 9.78 7.388 10.046s10.795 1.52 11.655 3.536-7.117 9.308-7.315 9.805 1.8 10.865.156 12.22-11.012-3.95-11.584-3.953S27.39 49 25.367 47.61s.732-11.372.587-11.933-8.226-7.135-7.315-9.805 11.283-3.259 11.655-3.536 3.993-10.044 6.791-10.044z" transform="translate(-18.192 -12.292)" style="fill:#61738e"/>
                    <path id="Path_21035-2" data-name="Path 21035-2" d="M36.621 12.63c2.743 0 6.34 9.981 6.76 10.242s10.76 1.12 11.6 3.095-7.158 8.939-7.351 9.421 1.944 10.829.337 12.158-10.792-4.053-11.349-4.056-9.368 5.41-11.346 4.056.664-11.424.522-11.974-8.428-6.987-7.535-9.6 11.423-2.824 11.788-3.095 3.831-10.247 6.574-10.247z" transform="translate(-18.192 -12.292)" style="fill:#a5b3c8"/>
                </g>
            </g>
            <g id="crying" transform="translate(27.768 24.389)">
                <g id="Group">
                    <path id="Path" class="cls-5" d="M27.307 25.514a9.533 9.533 0 0 0 7.261-1.686q-.921 3.795-7.261 1.686z" transform="translate(-27.307 -23.828)"/>
                    <path id="Path-2" class="cls-5" d="M44.613 25.514a9.533 9.533 0 0 1-7.261-1.686q.921 3.795 7.261 1.686z" transform="translate(-27.307 -23.828)"/>
                    <path id="Path-3" class="cls-5" d="M31.958 39.145a4.422 4.422 0 0 1 8-.015.492.492 0 0 0 .912-.355 5.06 5.06 0 0 0-9.827.008.494.494 0 0 0 .911.362z" transform="translate(-27.307 -23.828)"/>
                </g>
                <ellipse id="Ellipse_756-5" data-name="Ellipse 756-5" class="cls-5" cx="3.245" cy="2.247" rx="3.245" ry="2.247" transform="rotate(-77.881 10.74 -2.407)"/>
                <ellipse id="Ellipse_756-5-2" data-name="Ellipse 756-5-2" class="cls-5" cx="2.246" cy="3.244" rx="2.246" ry="3.244" transform="matrix(.978 -.21 .21 .978 .712 3.201)"/>
            </g>
        </g>
    </g>
</svg>
